<svg width="80" height="80" viewBox="0 0 80 80" fill="none" xmlns="http://www.w3.org/2000/svg">
<path d="M58.212 29.6C63.4763 30.7761 67.419 35.4917 67.419 41.1145C67.419 47.6333 62.1322 52.9089 55.6246 52.9089H17.4746C10.9558 52.9089 5.68018 48.2718 5.68018 41.7529C5.68018 36.1749 9.54445 31.5042 14.7416 30.2721C14.4168 29.32 14.2488 28.3008 14.2488 27.2479C14.2488 22.0059 18.5051 17.7496 23.7471 17.7496C26.3457 17.7496 28.709 18.8025 30.4228 20.4938C32.7301 15.3974 37.8601 11.858 43.8189 11.858C51.9395 11.858 58.5256 18.444 58.5256 26.5646C58.5256 27.6063 58.212 29.6 58.212 29.6Z" stroke="#16181A" stroke-width="2" stroke-linecap="round" stroke-linejoin="round"/>
<path d="M48.5792 12.6421C50.7186 10.2451 53.6532 8.50896 57.0694 7.90411C65.134 6.48161 72.8402 11.858 74.2627 19.9338C75.4388 26.6095 71.9665 33.0163 66.1645 35.8501" stroke="#16181A" stroke-width="2" stroke-linecap="round" stroke-linejoin="round"/>
<path d="M23.2318 63.6505C23.2318 64.8266 22.2798 65.7899 21.0925 65.7899C19.9052 65.7899 18.9531 64.8378 18.9531 63.6505C18.9531 62.4632 19.9052 61.5112 21.0925 61.5112C22.2798 61.5112 23.2318 62.4632 23.2318 63.6505Z" fill="#16181A" stroke="#16181A" stroke-width="2" stroke-linecap="round" stroke-linejoin="round"/>
<path d="M38.689 63.6505C38.689 64.8266 37.7369 65.7899 36.5496 65.7899C35.3623 65.7899 34.4103 64.8378 34.4103 63.6505C34.4103 62.4632 35.3623 61.5112 36.5496 61.5112C37.7369 61.5112 38.689 62.4632 38.689 63.6505Z" fill="#16181A" stroke="#16181A" stroke-width="2" stroke-linecap="round" stroke-linejoin="round"/>
<path d="M54.1349 63.6505C54.1349 64.8266 53.1828 65.7899 51.9956 65.7899C50.8083 65.7899 49.8562 64.8378 49.8562 63.6505C49.8562 62.4632 50.8083 61.5112 51.9956 61.5112C53.1828 61.5112 54.1349 62.4632 54.1349 63.6505Z" fill="#16181A" stroke="#16181A" stroke-width="2" stroke-linecap="round" stroke-linejoin="round"/>
<path d="M31.0724 71.4911C31.0724 72.6672 30.1203 73.6305 28.9331 73.6305C27.7458 73.6305 26.7937 72.6784 26.7937 71.4911C26.7937 70.3038 27.7458 69.3517 28.9331 69.3517C30.1203 69.3517 31.0724 70.3038 31.0724 71.4911Z" fill="#16181A" stroke="#16181A" stroke-width="2" stroke-linecap="round" stroke-linejoin="round"/>
<path d="M46.5296 71.4911C46.5296 72.6672 45.5775 73.6305 44.3902 73.6305C43.2029 73.6305 42.2509 72.6784 42.2509 71.4911C42.2509 70.3038 43.2029 69.3517 44.3902 69.3517C45.5775 69.3517 46.5296 70.3038 46.5296 71.4911Z" fill="#16181A" stroke="#16181A" stroke-width="2" stroke-linecap="round" stroke-linejoin="round"/>
</svg>
