<svg width="80" height="80" viewBox="0 0 80 80" fill="none" xmlns="http://www.w3.org/2000/svg">
<path d="M52.2853 35.8646C56.8317 36.8865 60.2252 40.9481 60.2252 45.7959C60.2252 51.4167 55.6656 55.9762 50.0449 55.9762H17.1456C11.5248 55.9762 6.96533 51.9801 6.96533 46.3593C6.96533 41.5508 10.2933 37.5154 14.7742 36.4541C14.499 35.6418 14.3549 34.7509 14.3549 33.8468C14.3549 29.3266 18.0235 25.6581 22.5437 25.6581C24.7841 25.6581 26.828 26.5621 28.3086 28.0295C30.3001 23.6403 34.7286 20.5745 39.8646 20.5745C46.8742 20.5745 52.5474 26.2477 52.5474 33.2572C52.5474 34.1613 52.2722 35.8777 52.2722 35.8777L52.2853 35.8646Z" stroke="#16181A" stroke-width="2" stroke-linecap="round" stroke-linejoin="round"/>
<path d="M55.9408 36.4018C65.204 36.4018 74.0347 28.8943 74.0347 19.618C74.0347 19.5394 74.0347 19.4608 74.0347 19.3822C71.7419 22.186 68.2698 23.981 64.3654 23.981C57.4737 23.981 51.8923 18.3995 51.8923 11.5079C51.8923 8.19305 53.1894 5.19268 55.2988 2.96533C46.9659 3.94799 40.5066 9.71289 40.5066 18.3078" stroke="#16181A" stroke-width="2" stroke-linecap="round" stroke-linejoin="round"/>
<path d="M18.0104 66.471C18.0104 67.8467 16.8967 68.9735 15.5079 68.9735C14.119 68.9735 13.0054 67.8598 13.0054 66.471C13.0054 65.0821 14.119 63.9685 15.5079 63.9685C16.8967 63.9685 18.0104 65.0821 18.0104 66.471Z" fill="#16181A" stroke="#16181A" stroke-width="2" stroke-linecap="round" stroke-linejoin="round"/>
<path d="M36.0912 66.471C36.0912 67.8467 34.9775 68.9735 33.5887 68.9735C32.1999 68.9735 31.0862 67.8598 31.0862 66.471C31.0862 65.0821 32.1999 63.9685 33.5887 63.9685C34.9775 63.9685 36.0912 65.0821 36.0912 66.471Z" fill="#16181A" stroke="#16181A" stroke-width="2" stroke-linecap="round" stroke-linejoin="round"/>
<path d="M54.172 66.471C54.172 67.8467 53.0584 68.9735 51.6695 68.9735C50.2807 68.9735 49.1671 67.8598 49.1671 66.471C49.1671 65.0821 50.2807 63.9685 51.6695 63.9685C53.0584 63.9685 54.172 65.0821 54.172 66.471Z" fill="#16181A" stroke="#16181A" stroke-width="2" stroke-linecap="round" stroke-linejoin="round"/>
<path d="M27.1818 75.6424C27.1818 77.0181 26.0681 78.1449 24.6793 78.1449C23.2905 78.1449 22.1768 77.0312 22.1768 75.6424C22.1768 74.2536 23.2905 73.1399 24.6793 73.1399C26.0681 73.1399 27.1818 74.2536 27.1818 75.6424Z" fill="#16181A" stroke="#16181A" stroke-width="2" stroke-linecap="round" stroke-linejoin="round"/>
<path d="M45.2626 75.6424C45.2626 77.0181 44.1489 78.1449 42.7601 78.1449C41.3713 78.1449 40.2576 77.0312 40.2576 75.6424C40.2576 74.2536 41.3713 73.1399 42.7601 73.1399C44.1489 73.1399 45.2626 74.2536 45.2626 75.6424Z" fill="#16181A" stroke="#16181A" stroke-width="2" stroke-linecap="round" stroke-linejoin="round"/>
</svg>
