<svg width="80" height="80" viewBox="0 0 80 80" fill="none" xmlns="http://www.w3.org/2000/svg">
<path d="M18.5818 63.0341L17.5915 69.9915" stroke="#16181A" stroke-width="2" stroke-linecap="round" stroke-linejoin="round"/>
<path d="M28.7894 63.0341L26.8215 76.873" stroke="#16181A" stroke-width="2" stroke-linecap="round" stroke-linejoin="round"/>
<path d="M39.378 63.0341L37.3974 76.873" stroke="#16181A" stroke-width="2" stroke-linecap="round" stroke-linejoin="round"/>
<path d="M49.5856 63.0341L48.5953 69.9915" stroke="#16181A" stroke-width="2" stroke-linecap="round" stroke-linejoin="round"/>
<path d="M51.8201 34.7227C56.2257 35.7112 59.5139 39.6399 59.5139 44.3288C59.5139 49.7655 55.0957 54.1757 49.6491 54.1757H17.7693C12.3227 54.1757 7.90442 50.3105 7.90442 44.8738C7.90442 40.2228 11.1419 36.3195 15.4713 35.293C15.2047 34.5073 15.065 33.6455 15.065 32.7711C15.065 28.3989 18.6199 24.8505 23 24.8505C25.1711 24.8505 27.1517 25.7249 28.5863 27.1443C30.5161 22.8862 34.8074 19.9334 39.7843 19.9334C46.5767 19.9334 52.074 25.4335 52.074 32.2008C52.074 33.0753 51.8074 34.7354 51.8074 34.7354L51.8201 34.7227Z" stroke="#16181A" stroke-width="2" stroke-linecap="round" stroke-linejoin="round"/>
<path d="M55.3623 35.2423C64.3385 35.2423 72.8956 27.9807 72.8956 19.0083C72.8956 18.9322 72.8956 18.8562 72.8956 18.7802C70.6738 21.4922 67.3093 23.2284 63.5259 23.2284C56.8478 23.2284 51.4393 17.8297 51.4393 11.1637C51.4393 7.95745 52.6962 5.05534 54.7402 2.90094C46.6655 3.85141 40.4064 9.42751 40.4064 17.741" stroke="#16181A" stroke-width="2" stroke-linecap="round" stroke-linejoin="round"/>
</svg>
