<svg width="80" height="80" viewBox="0 0 80 80" fill="none" xmlns="http://www.w3.org/2000/svg">
<path fill-rule="evenodd" clip-rule="evenodd" d="M51.3768 35.4795C56.6782 36.6211 60.241 41.4577 59.6393 46.6964C59.0376 51.935 54.465 55.8913 49.0347 55.8716H14.6302C8.76494 55.8716 4 51.8147 4 46.0724C4.01893 41.2982 7.40942 37.16 12.1973 36.0674C11.9037 35.2245 11.7536 34.3408 11.7531 33.451C11.7662 30.105 13.8456 27.0929 17.029 25.809C20.2123 24.5251 23.8784 25.2198 26.3306 27.5715C28.9066 22.0518 35.1013 19.025 41.2033 20.3046C47.3052 21.5841 51.6604 26.823 51.6595 32.8827C51.6166 33.7723 51.5222 34.6589 51.3768 35.5383V35.4795Z" stroke="#16181A" stroke-width="2" stroke-linecap="round" stroke-linejoin="round"/>
<path d="M42.6949 20.6435C46.2897 16.7284 51.958 15.2969 57.0627 17.0149C62.1674 18.733 65.706 23.2633 66.0323 28.4982C66.3586 33.733 63.4085 38.6444 58.5544 40.9474" stroke="#16181A" stroke-width="2" stroke-linecap="round" stroke-linejoin="round"/>
<path d="M19.8495 65.269C19.8495 66.3026 18.9863 67.1406 17.9213 67.1406C16.8564 67.1406 15.9932 66.3026 15.9932 65.269C15.9932 64.2353 16.8564 63.3973 17.9213 63.3973C18.984 63.4027 19.844 64.2375 19.8495 65.269Z" fill="#16181A" stroke="#16181A" stroke-width="2" stroke-linecap="round" stroke-linejoin="round"/>
<path d="M33.8111 65.269C33.8111 66.3026 32.9479 67.1406 31.883 67.1406C30.818 67.1406 29.9548 66.3026 29.9548 65.269C29.9548 64.2353 30.818 63.3973 31.883 63.3973C32.9456 63.4027 33.8056 64.2375 33.8111 65.269Z" fill="#16181A" stroke="#16181A" stroke-width="2" stroke-linecap="round" stroke-linejoin="round"/>
<path d="M47.7021 65.2689C47.7021 66.0268 47.2312 66.7099 46.5095 66.999C45.7877 67.2881 44.9576 67.1262 44.4069 66.5889C43.8563 66.0516 43.6938 65.2449 43.9954 64.5459C44.2971 63.8468 45.0033 63.3933 45.784 63.3973C46.845 63.4027 47.7021 64.2391 47.7021 65.2689Z" fill="#16181A" stroke="#16181A" stroke-width="2" stroke-linecap="round" stroke-linejoin="round"/>
<path d="M26.9161 72.1284C26.9161 73.162 26.0528 74 24.9879 74C23.923 74 23.0598 73.162 23.0598 72.1284C23.0598 71.0947 23.923 70.2567 24.9879 70.2567C26.0506 70.2621 26.9106 71.0969 26.9161 72.1284Z" fill="#16181A" stroke="#16181A" stroke-width="2" stroke-linecap="round" stroke-linejoin="round"/>
<path d="M40.8778 72.1284C40.8778 73.162 40.0145 74 38.9496 74C37.8847 74 37.0214 73.162 37.0214 72.1284C37.0214 71.0947 37.8847 70.2567 38.9496 70.2567C40.0122 70.2621 40.8723 71.0969 40.8778 72.1284Z" fill="#16181A" stroke="#16181A" stroke-width="2" stroke-linecap="round" stroke-linejoin="round"/>
<path d="M68.8516 44.4813L65.8735 41.5416" stroke="#16181A" stroke-width="2" stroke-linecap="round" stroke-linejoin="round"/>
<path d="M53.9813 10.1255L53.951 6" stroke="#16181A" stroke-width="2" stroke-linecap="round" stroke-linejoin="round"/>
<path d="M71.9104 29.5475L76.1706 29.5181" stroke="#16181A" stroke-width="2" stroke-linecap="round" stroke-linejoin="round"/>
<path d="M67.5392 15.3876L70.5274 12.4479" stroke="#16181A" stroke-width="2" stroke-linecap="round" stroke-linejoin="round"/>
<path d="M39.3635 15.3876L36.3754 12.4479" stroke="#16181A" stroke-width="2" stroke-linecap="round" stroke-linejoin="round"/>
<path d="M68.8516 44.4813L65.8735 41.5416" stroke="#16181A" stroke-width="2" stroke-linecap="round" stroke-linejoin="round"/>
</svg>
