<svg width="205" height="25" viewBox="0 0 205 25" fill="none" xmlns="http://www.w3.org/2000/svg">
<path d="M9.616 1.6C10.7467 1.6 11.792 1.90933 12.752 2.528C13.712 3.12533 14.48 3.94667 15.056 4.992C15.632 6.03733 15.92 7.21067 15.92 8.512C15.92 9.81333 15.632 10.9973 15.056 12.064C14.48 13.1093 13.712 13.952 12.752 14.592C11.792 15.2107 10.7467 15.52 9.616 15.52H3.44L3.696 15.008V22.368C3.696 22.8373 3.54667 23.232 3.248 23.552C2.97067 23.8507 2.59733 24 2.128 24C1.68 24 1.30667 23.8507 1.008 23.552C0.730667 23.232 0.592 22.8373 0.592 22.368V3.232C0.592 2.76267 0.752 2.37867 1.072 2.08C1.392 1.76 1.776 1.6 2.224 1.6H9.616ZM9.616 12.448C10.1707 12.448 10.672 12.2667 11.12 11.904C11.5893 11.5413 11.9627 11.0613 12.24 10.464C12.5387 9.86667 12.688 9.216 12.688 8.512C12.688 7.808 12.5387 7.168 12.24 6.592C11.9627 6.016 11.5893 5.55733 11.12 5.216C10.672 4.85333 10.1707 4.672 9.616 4.672H3.376L3.696 4.192V12.864L3.408 12.448H9.616ZM21.0588 24C20.5894 24 20.2054 23.8507 19.9068 23.552C19.6081 23.232 19.4588 22.8373 19.4588 22.368V8.8C19.4588 8.33067 19.6081 7.94667 19.9068 7.648C20.2054 7.328 20.5894 7.168 21.0588 7.168C21.5068 7.168 21.8801 7.328 22.1788 7.648C22.4988 7.94667 22.6588 8.33067 22.6588 8.8V12.384L22.3388 11.008C22.5094 10.4107 22.7654 9.856 23.1068 9.344C23.4694 8.832 23.8961 8.384 24.3868 8C24.8774 7.616 25.4214 7.31733 26.0188 7.104C26.6374 6.89067 27.2774 6.784 27.9388 6.784C28.4934 6.784 28.9734 6.93333 29.3788 7.232C29.7841 7.53067 29.9868 7.904 29.9868 8.352C29.9868 8.928 29.8374 9.35467 29.5388 9.632C29.2401 9.888 28.9094 10.016 28.5468 10.016C28.2268 10.016 27.9174 9.952 27.6188 9.824C27.3201 9.67467 26.9681 9.6 26.5628 9.6C26.1148 9.6 25.6561 9.71733 25.1868 9.952C24.7174 10.1867 24.2908 10.5387 23.9068 11.008C23.5228 11.456 23.2134 11.9893 22.9788 12.608C22.7654 13.2267 22.6588 13.92 22.6588 14.688V22.368C22.6588 22.8373 22.4988 23.232 22.1788 23.552C21.8801 23.8507 21.5068 24 21.0588 24ZM35.8418 22.368C35.8418 22.8373 35.6924 23.232 35.3938 23.552C35.0951 23.8507 34.7111 24 34.2418 24C33.7938 24 33.4098 23.8507 33.0898 23.552C32.7911 23.232 32.6418 22.8373 32.6418 22.368V8.672C32.6418 8.20267 32.7911 7.81867 33.0898 7.52C33.4098 7.2 33.7938 7.04 34.2418 7.04C34.7111 7.04 35.0951 7.2 35.3938 7.52C35.6924 7.81867 35.8418 8.20267 35.8418 8.672V22.368ZM34.2098 4.928C33.5911 4.928 33.1431 4.82133 32.8658 4.608C32.5884 4.37333 32.4498 3.98933 32.4498 3.456V2.944C32.4498 2.41067 32.5991 2.03733 32.8978 1.824C33.1964 1.61067 33.6444 1.504 34.2418 1.504C34.8818 1.504 35.3404 1.62133 35.6178 1.856C35.8951 2.06933 36.0338 2.432 36.0338 2.944V3.456C36.0338 4.01067 35.8844 4.39467 35.5858 4.608C35.3084 4.82133 34.8498 4.928 34.2098 4.928ZM48.5943 6.88C50.1729 6.88 51.3889 7.27467 52.2423 8.064C53.0956 8.832 53.6609 9.87733 53.9383 11.2L53.4263 11.04L53.6503 10.528C53.9276 9.97333 54.3436 9.41867 54.8983 8.864C55.4743 8.288 56.1569 7.81867 56.9463 7.456C57.7356 7.072 58.5783 6.88 59.4743 6.88C60.9463 6.88 62.0876 7.2 62.8983 7.84C63.7089 8.45867 64.2743 9.30133 64.5943 10.368C64.9143 11.4133 65.0743 12.5867 65.0743 13.888V22.368C65.0743 22.8373 64.9249 23.232 64.6263 23.552C64.3276 23.8507 63.9436 24 63.4743 24C63.0263 24 62.6423 23.8507 62.3223 23.552C62.0236 23.232 61.8743 22.8373 61.8743 22.368V13.92C61.8743 13.1733 61.7676 12.4907 61.5543 11.872C61.3623 11.2533 61.0103 10.7627 60.4983 10.4C60.0076 10.016 59.3249 9.824 58.4503 9.824C57.6183 9.824 56.8716 10.016 56.2103 10.4C55.5703 10.7627 55.0689 11.2533 54.7063 11.872C54.3436 12.4907 54.1623 13.1733 54.1623 13.92V22.368C54.1623 22.8373 54.0129 23.232 53.7143 23.552C53.4156 23.8507 53.0316 24 52.5623 24C52.0929 24 51.7089 23.8507 51.4103 23.552C51.1116 23.232 50.9623 22.8373 50.9623 22.368V13.888C50.9623 13.1413 50.8556 12.4587 50.6423 11.84C50.4503 11.2213 50.1089 10.7307 49.6183 10.368C49.1276 10.0053 48.4449 9.824 47.5703 9.824C46.7383 9.824 46.0023 10.0053 45.3623 10.368C44.7223 10.7307 44.2209 11.2213 43.8583 11.84C43.5169 12.4587 43.3463 13.1413 43.3463 13.888V22.368C43.3463 22.8373 43.1863 23.232 42.8663 23.552C42.5676 23.8507 42.1943 24 41.7463 24C41.2769 24 40.8929 23.8507 40.5943 23.552C40.2956 23.232 40.1463 22.8373 40.1463 22.368V8.8C40.1463 8.33067 40.2956 7.94667 40.5943 7.648C40.8929 7.328 41.2769 7.168 41.7463 7.168C42.1943 7.168 42.5676 7.328 42.8663 7.648C43.1863 7.94667 43.3463 8.33067 43.3463 8.8V10.688L42.7383 11.04C42.8876 10.5707 43.1329 10.0907 43.4743 9.6C43.8156 9.10933 44.2423 8.66133 44.7543 8.256C45.2876 7.85067 45.8743 7.52 46.5143 7.264C47.1543 7.008 47.8476 6.88 48.5943 6.88ZM77.3925 24.32C75.6218 24.32 74.0858 23.9573 72.7845 23.232C71.4832 22.4853 70.4698 21.472 69.7445 20.192C69.0405 18.8907 68.6885 17.408 68.6885 15.744C68.6885 13.8667 69.0618 12.2667 69.8085 10.944C70.5765 9.6 71.5685 8.576 72.7845 7.872C74.0005 7.14667 75.2912 6.784 76.6565 6.784C77.7018 6.784 78.6938 6.99733 79.6325 7.424C80.5712 7.82933 81.4032 8.40533 82.1285 9.152C82.8752 9.87733 83.4618 10.7413 83.8885 11.744C84.3152 12.7253 84.5392 13.8027 84.5605 14.976C84.5392 15.4027 84.3685 15.7547 84.0485 16.032C83.7285 16.3093 83.3552 16.448 82.9285 16.448H70.4805L69.7125 13.728H81.7445L81.1365 14.304V13.504C81.0938 12.7573 80.8485 12.1067 80.4005 11.552C79.9525 10.976 79.3978 10.5387 78.7365 10.24C78.0752 9.92 77.3818 9.76 76.6565 9.76C76.0165 9.76 75.3978 9.86667 74.8005 10.08C74.2245 10.272 73.7018 10.592 73.2325 11.04C72.7845 11.488 72.4218 12.0853 72.1445 12.832C71.8885 13.5573 71.7605 14.464 71.7605 15.552C71.7605 16.7253 72.0058 17.7493 72.4965 18.624C72.9872 19.4987 73.6485 20.1813 74.4805 20.672C75.3125 21.1413 76.2298 21.376 77.2325 21.376C78.0218 21.376 78.6725 21.3013 79.1845 21.152C79.6965 20.9813 80.1232 20.7787 80.4645 20.544C80.8058 20.3093 81.1045 20.0853 81.3605 19.872C81.6805 19.68 82.0005 19.584 82.3205 19.584C82.7045 19.584 83.0245 19.7227 83.2805 20C83.5365 20.256 83.6645 20.5653 83.6645 20.928C83.6645 21.3973 83.4298 21.824 82.9605 22.208C82.3845 22.7627 81.5845 23.2533 80.5605 23.68C79.5578 24.1067 78.5018 24.32 77.3925 24.32Z" fill="#16181A"/>
<path d="M104.434 2.88C104.903 3.11467 105.17 3.47733 105.234 3.968C105.319 4.45867 105.202 4.90667 104.882 5.312C104.647 5.632 104.338 5.81333 103.954 5.856C103.591 5.89867 103.228 5.824 102.866 5.632C102.247 5.312 101.596 5.056 100.914 4.864C100.231 4.672 99.5055 4.576 98.7375 4.576C97.5215 4.576 96.4228 4.77867 95.4415 5.184C94.4815 5.568 93.6495 6.13333 92.9455 6.88C92.2415 7.60533 91.6975 8.46933 91.3135 9.472C90.9508 10.4747 90.7695 11.584 90.7695 12.8C90.7695 14.144 90.9722 15.3387 91.3775 16.384C91.7828 17.408 92.3375 18.2827 93.0415 19.008C93.7668 19.712 94.6095 20.2453 95.5695 20.608C96.5508 20.9493 97.6068 21.12 98.7375 21.12C99.4628 21.12 100.167 21.0347 100.85 20.864C101.554 20.6933 102.215 20.4373 102.833 20.096C103.218 19.904 103.591 19.84 103.954 19.904C104.338 19.9467 104.647 20.128 104.882 20.448C105.244 20.896 105.372 21.3547 105.266 21.824C105.18 22.272 104.914 22.6133 104.466 22.848C103.932 23.1467 103.346 23.4027 102.706 23.616C102.066 23.8293 101.415 24 100.754 24.128C100.092 24.256 99.4202 24.32 98.7375 24.32C97.2015 24.32 95.7508 24.064 94.3855 23.552C93.0202 23.04 91.8042 22.2933 90.7375 21.312C89.6708 20.3307 88.8282 19.1253 88.2095 17.696C87.6122 16.2667 87.3135 14.6347 87.3135 12.8C87.3135 11.1573 87.5908 9.64267 88.1455 8.256C88.7215 6.848 89.5215 5.64267 90.5455 4.64C91.5908 3.616 92.8068 2.82667 94.1935 2.272C95.5802 1.696 97.0948 1.408 98.7375 1.408C99.7615 1.408 100.754 1.536 101.714 1.792C102.695 2.048 103.602 2.41067 104.434 2.88ZM124.649 15.584C124.649 17.2907 124.276 18.8053 123.529 20.128C122.783 21.4293 121.769 22.4533 120.489 23.2C119.209 23.9467 117.769 24.32 116.169 24.32C114.569 24.32 113.129 23.9467 111.849 23.2C110.569 22.4533 109.545 21.4293 108.777 20.128C108.031 18.8053 107.657 17.2907 107.657 15.584C107.657 13.856 108.031 12.3413 108.777 11.04C109.545 9.71733 110.569 8.68267 111.849 7.936C113.129 7.168 114.569 6.784 116.169 6.784C117.769 6.784 119.209 7.168 120.489 7.936C121.769 8.68267 122.783 9.71733 123.529 11.04C124.276 12.3413 124.649 13.856 124.649 15.584ZM121.449 15.584C121.449 14.4107 121.215 13.3973 120.745 12.544C120.276 11.6693 119.636 10.9867 118.825 10.496C118.036 9.984 117.151 9.728 116.169 9.728C115.188 9.728 114.292 9.984 113.481 10.496C112.671 10.9867 112.031 11.6693 111.561 12.544C111.092 13.3973 110.857 14.4107 110.857 15.584C110.857 16.7147 111.092 17.7173 111.561 18.592C112.031 19.4667 112.671 20.1493 113.481 20.64C114.292 21.1307 115.188 21.376 116.169 21.376C117.151 21.376 118.036 21.1307 118.825 20.64C119.636 20.1493 120.276 19.4667 120.745 18.592C121.215 17.7173 121.449 16.7147 121.449 15.584ZM136.943 6.784C138.458 6.784 139.631 7.104 140.463 7.744C141.295 8.36267 141.871 9.20533 142.191 10.272C142.533 11.3173 142.703 12.4907 142.703 13.792V22.368C142.703 22.8373 142.543 23.232 142.223 23.552C141.925 23.8507 141.551 24 141.103 24C140.634 24 140.25 23.8507 139.951 23.552C139.653 23.232 139.503 22.8373 139.503 22.368V13.824C139.503 13.056 139.397 12.3733 139.183 11.776C138.97 11.1573 138.597 10.6667 138.063 10.304C137.551 9.92 136.826 9.728 135.887 9.728C135.013 9.728 134.245 9.92 133.583 10.304C132.922 10.6667 132.399 11.1573 132.015 11.776C131.653 12.3733 131.471 13.056 131.471 13.824V22.368C131.471 22.8373 131.311 23.232 130.991 23.552C130.693 23.8507 130.319 24 129.871 24C129.402 24 129.018 23.8507 128.719 23.552C128.421 23.232 128.271 22.8373 128.271 22.368V8.8C128.271 8.33067 128.421 7.94667 128.719 7.648C129.018 7.328 129.402 7.168 129.871 7.168C130.319 7.168 130.693 7.328 130.991 7.648C131.311 7.94667 131.471 8.33067 131.471 8.8V10.592L130.895 10.912C131.045 10.4427 131.301 9.97333 131.663 9.504C132.047 9.01333 132.506 8.56533 133.039 8.16C133.573 7.73333 134.17 7.40267 134.831 7.168C135.493 6.912 136.197 6.784 136.943 6.784ZM160.938 0.32C161.408 0.32 161.792 0.469333 162.09 0.768C162.389 1.06667 162.538 1.46133 162.538 1.952V22.368C162.538 22.8373 162.389 23.232 162.09 23.552C161.792 23.8507 161.408 24 160.938 24C160.49 24 160.106 23.8507 159.786 23.552C159.488 23.232 159.338 22.8373 159.338 22.368V20.064L160.01 20.096C160.01 20.48 159.85 20.9173 159.53 21.408C159.232 21.8773 158.816 22.336 158.282 22.784C157.749 23.232 157.12 23.6053 156.394 23.904C155.669 24.1813 154.89 24.32 154.058 24.32C152.586 24.32 151.264 23.9467 150.09 23.2C148.917 22.432 147.989 21.3973 147.306 20.096C146.624 18.7733 146.282 17.2587 146.282 15.552C146.282 13.8453 146.624 12.3413 147.306 11.04C147.989 9.71733 148.906 8.68267 150.058 7.936C151.232 7.168 152.533 6.784 153.962 6.784C154.858 6.784 155.69 6.93333 156.458 7.232C157.248 7.53067 157.93 7.91467 158.506 8.384C159.082 8.85333 159.53 9.35467 159.85 9.888C160.17 10.4 160.33 10.8907 160.33 11.36L159.338 11.456V1.952C159.338 1.48267 159.488 1.09867 159.786 0.799999C160.106 0.48 160.49 0.32 160.938 0.32ZM154.41 21.376C155.434 21.376 156.32 21.12 157.066 20.608C157.834 20.096 158.432 19.4027 158.858 18.528C159.285 17.6533 159.498 16.6613 159.498 15.552C159.498 14.4427 159.285 13.4507 158.858 12.576C158.432 11.7013 157.834 11.008 157.066 10.496C156.298 9.984 155.413 9.728 154.41 9.728C153.429 9.728 152.554 9.984 151.786 10.496C151.04 11.008 150.442 11.7013 149.994 12.576C149.568 13.4507 149.354 14.4427 149.354 15.552C149.354 16.6613 149.568 17.6533 149.994 18.528C150.442 19.4027 151.04 20.096 151.786 20.608C152.554 21.12 153.429 21.376 154.41 21.376ZM170.029 22.368C170.029 22.8373 169.88 23.232 169.581 23.552C169.283 23.8507 168.899 24 168.429 24C167.981 24 167.597 23.8507 167.277 23.552C166.979 23.232 166.829 22.8373 166.829 22.368V8.672C166.829 8.20267 166.979 7.81867 167.277 7.52C167.597 7.2 167.981 7.04 168.429 7.04C168.899 7.04 169.283 7.2 169.581 7.52C169.88 7.81867 170.029 8.20267 170.029 8.672V22.368ZM168.397 4.928C167.779 4.928 167.331 4.82133 167.053 4.608C166.776 4.37333 166.637 3.98933 166.637 3.456V2.944C166.637 2.41067 166.787 2.03733 167.085 1.824C167.384 1.61067 167.832 1.504 168.429 1.504C169.069 1.504 169.528 1.62133 169.805 1.856C170.083 2.06933 170.221 2.432 170.221 2.944V3.456C170.221 4.01067 170.072 4.39467 169.773 4.608C169.496 4.82133 169.037 4.928 168.397 4.928ZM182.174 24.32C180.403 24.32 178.867 23.9573 177.566 23.232C176.264 22.4853 175.251 21.472 174.526 20.192C173.822 18.8907 173.47 17.408 173.47 15.744C173.47 13.8667 173.843 12.2667 174.59 10.944C175.358 9.6 176.35 8.576 177.566 7.872C178.782 7.14667 180.072 6.784 181.438 6.784C182.483 6.784 183.475 6.99733 184.414 7.424C185.352 7.82933 186.184 8.40533 186.91 9.152C187.656 9.87733 188.243 10.7413 188.67 11.744C189.096 12.7253 189.32 13.8027 189.342 14.976C189.32 15.4027 189.15 15.7547 188.83 16.032C188.51 16.3093 188.136 16.448 187.71 16.448H175.262L174.494 13.728H186.526L185.918 14.304V13.504C185.875 12.7573 185.63 12.1067 185.182 11.552C184.734 10.976 184.179 10.5387 183.518 10.24C182.856 9.92 182.163 9.76 181.438 9.76C180.798 9.76 180.179 9.86667 179.582 10.08C179.006 10.272 178.483 10.592 178.014 11.04C177.566 11.488 177.203 12.0853 176.926 12.832C176.67 13.5573 176.542 14.464 176.542 15.552C176.542 16.7253 176.787 17.7493 177.278 18.624C177.768 19.4987 178.43 20.1813 179.262 20.672C180.094 21.1413 181.011 21.376 182.014 21.376C182.803 21.376 183.454 21.3013 183.966 21.152C184.478 20.9813 184.904 20.7787 185.246 20.544C185.587 20.3093 185.886 20.0853 186.142 19.872C186.462 19.68 186.782 19.584 187.102 19.584C187.486 19.584 187.806 19.7227 188.062 20C188.318 20.256 188.446 20.5653 188.446 20.928C188.446 21.3973 188.211 21.824 187.742 22.208C187.166 22.7627 186.366 23.2533 185.342 23.68C184.339 24.1067 183.283 24.32 182.174 24.32ZM191.967 21.376C191.775 21.0773 191.689 20.736 191.711 20.352C191.732 19.9467 191.956 19.6053 192.383 19.328C192.681 19.136 192.991 19.0613 193.311 19.104C193.652 19.1253 193.972 19.2853 194.271 19.584C194.868 20.2453 195.529 20.768 196.255 21.152C197.001 21.536 197.897 21.728 198.943 21.728C199.369 21.7067 199.807 21.6427 200.255 21.536C200.703 21.408 201.087 21.1947 201.407 20.896C201.727 20.576 201.887 20.1173 201.887 19.52C201.887 18.9867 201.716 18.56 201.375 18.24C201.033 17.92 200.585 17.664 200.031 17.472C199.476 17.2587 198.879 17.0667 198.239 16.896C197.556 16.704 196.863 16.4907 196.159 16.256C195.476 16.0213 194.857 15.7227 194.303 15.36C193.748 14.976 193.289 14.4853 192.927 13.888C192.585 13.2907 192.415 12.5547 192.415 11.68C192.415 10.6773 192.692 9.81333 193.247 9.088C193.823 8.36267 194.559 7.79733 195.455 7.392C196.372 6.98667 197.364 6.784 198.431 6.784C199.049 6.784 199.7 6.86933 200.383 7.04C201.065 7.18933 201.727 7.43467 202.367 7.776C203.007 8.11733 203.561 8.56533 204.031 9.12C204.244 9.39733 204.361 9.728 204.383 10.112C204.425 10.496 204.255 10.8373 203.871 11.136C203.615 11.3493 203.305 11.4453 202.943 11.424C202.58 11.4027 202.281 11.2853 202.047 11.072C201.641 10.56 201.119 10.1653 200.479 9.888C199.839 9.58933 199.113 9.44 198.303 9.44C197.897 9.44 197.471 9.504 197.023 9.632C196.596 9.73867 196.233 9.94133 195.935 10.24C195.636 10.5387 195.487 10.976 195.487 11.552C195.487 12.0853 195.657 12.512 195.999 12.832C196.361 13.152 196.831 13.4187 197.407 13.632C197.983 13.8453 198.612 14.0373 199.295 14.208C199.956 14.3787 200.607 14.5813 201.247 14.816C201.908 15.0507 202.495 15.36 203.007 15.744C203.54 16.1067 203.967 16.5867 204.287 17.184C204.628 17.76 204.799 18.496 204.799 19.392C204.799 20.4373 204.489 21.3333 203.871 22.08C203.273 22.8053 202.505 23.36 201.567 23.744C200.649 24.128 199.679 24.32 198.655 24.32C197.439 24.32 196.223 24.1067 195.007 23.68C193.812 23.232 192.799 22.464 191.967 21.376Z" fill="#2889CB"/>
</svg>
